<svg id="Layer_1" data-name="Layer 1" xmlns="http://www.w3.org/2000/svg" xmlns:xlink="http://www.w3.org/1999/xlink" width="60" height="60" viewBox="0 0 60 60">
  <defs>
    <style>
      .cls-1 {
        fill: url(#linear-gradient);
      }

      .cls-2, .cls-55 {
        fill: none;
      }

      .cls-3 {
        fill: url(#linear-gradient-2);
      }

      .cls-4 {
        fill: url(#linear-gradient-3);
      }

      .cls-5 {
        fill: url(#linear-gradient-4);
      }

      .cls-6 {
        fill: url(#linear-gradient-5);
      }

      .cls-7 {
        fill: url(#linear-gradient-6);
      }

      .cls-8 {
        fill: url(#linear-gradient-7);
      }

      .cls-9 {
        fill: url(#linear-gradient-8);
      }

      .cls-10 {
        fill: url(#linear-gradient-9);
      }

      .cls-11 {
        fill: url(#linear-gradient-10);
      }

      .cls-12 {
        fill: url(#linear-gradient-12);
      }

      .cls-13 {
        fill: url(#linear-gradient-13);
      }

      .cls-14 {
        fill: url(#linear-gradient-14);
      }

      .cls-15 {
        fill: url(#linear-gradient-15);
      }

      .cls-16 {
        fill: url(#linear-gradient-18);
      }

      .cls-17 {
        fill: url(#linear-gradient-19);
      }

      .cls-18 {
        fill: url(#linear-gradient-21);
      }

      .cls-19 {
        fill: url(#linear-gradient-23);
      }

      .cls-20 {
        fill: url(#linear-gradient-24);
      }

      .cls-21 {
        fill: url(#linear-gradient-25);
      }

      .cls-22 {
        fill: url(#linear-gradient-26);
      }

      .cls-23 {
        fill: url(#linear-gradient-27);
      }

      .cls-24 {
        fill: url(#linear-gradient-30);
      }

      .cls-25 {
        fill: url(#linear-gradient-32);
      }

      .cls-26 {
        fill: url(#linear-gradient-33);
      }

      .cls-27 {
        fill: url(#linear-gradient-34);
      }

      .cls-28 {
        fill: url(#linear-gradient-35);
      }

      .cls-29 {
        fill: url(#linear-gradient-36);
      }

      .cls-30 {
        fill: url(#linear-gradient-37);
      }

      .cls-31 {
        fill: url(#linear-gradient-38);
      }

      .cls-32 {
        fill: url(#linear-gradient-40);
      }

      .cls-33 {
        fill: url(#linear-gradient-41);
      }

      .cls-34 {
        fill: url(#linear-gradient-42);
      }

      .cls-35 {
        fill: url(#linear-gradient-43);
      }

      .cls-36 {
        fill: url(#linear-gradient-44);
      }

      .cls-37 {
        fill: url(#linear-gradient-45);
      }

      .cls-38 {
        fill: url(#linear-gradient-49);
      }

      .cls-39 {
        fill: url(#linear-gradient-50);
      }

      .cls-40 {
        fill: url(#linear-gradient-53);
      }

      .cls-41 {
        fill: url(#linear-gradient-54);
      }

      .cls-42 {
        fill: url(#linear-gradient-58);
      }

      .cls-43 {
        fill: url(#linear-gradient-59);
      }

      .cls-44 {
        fill: url(#linear-gradient-61);
      }

      .cls-45 {
        fill: url(#linear-gradient-62);
      }

      .cls-46 {
        fill: url(#linear-gradient-64);
      }

      .cls-47 {
        fill: url(#linear-gradient-65);
      }

      .cls-48 {
        fill: url(#linear-gradient-67);
      }

      .cls-49 {
        fill: url(#linear-gradient-68);
      }

      .cls-50 {
        fill: url(#linear-gradient-71);
      }

      .cls-51 {
        fill: url(#linear-gradient-74);
      }

      .cls-52, .cls-53 {
        opacity: 0.3;
      }

      .cls-52 {
        fill: url(#radial-gradient);
      }

      .cls-53 {
        fill: url(#radial-gradient-2);
      }

      .cls-54 {
        fill: #d70014;
      }

      .cls-55 {
        stroke: #d70014;
        stroke-width: 0.015px;
      }

      .cls-56 {
        fill: #ffd42f;
      }

      .cls-57 {
        fill: #ffd639;
      }

      .cls-58 {
        fill: #ffd842;
      }

      .cls-59 {
        fill: #feda4b;
      }

      .cls-60 {
        fill: #fedc55;
      }

      .cls-61 {
        fill: #fede5f;
      }

      .cls-62 {
        fill: #fee169;
      }

      .cls-63 {
        fill: #fee372;
      }

      .cls-64 {
        fill: #fee57c;
      }

      .cls-65 {
        fill: #fee787;
      }

      .cls-66 {
        fill: #fee991;
      }

      .cls-67 {
        fill: #feeb9b;
      }

      .cls-68 {
        fill: #feeda5;
      }

      .cls-69 {
        fill: #feefb0;
      }

      .cls-70 {
        fill: #fff1ba;
      }

      .cls-71 {
        fill: #fff4c5;
      }

      .cls-72 {
        fill: #fff6cf;
      }

      .cls-73 {
        fill: #fff8da;
      }

      .cls-74 {
        fill: #fffae5;
      }

      .cls-75 {
        fill: #fffcf0;
      }

      .cls-76 {
        fill: #fffefb;
      }

      .cls-77 {
        fill: #fff;
      }

      .cls-78 {
        opacity: 0.3044;
      }
    </style>
    <linearGradient id="linear-gradient" x1="-358.4167" y1="332.4167" x2="-358.4167" y2="331.4289" gradientTransform="matrix(60, 0, 0, -60, 21535.0021, 19945)" gradientUnits="userSpaceOnUse">
      <stop offset="0" stop-color="#a4d8ff" stop-opacity="0.7841"/>
      <stop offset="1" stop-color="#fff471" stop-opacity="0.4986"/>
    </linearGradient>
    <linearGradient id="linear-gradient-2" x1="-358.4007" y1="332.4167" x2="-358.4007" y2="331.4289" gradientTransform="matrix(60, 0, 0, -60, 21535, 19945)" xlink:href="#linear-gradient"/>
    <linearGradient id="linear-gradient-3" x1="-358.4142" y1="332.4167" x2="-358.4142" y2="331.4289" gradientTransform="matrix(60, 0, 0, -60, 21535, 19945)" xlink:href="#linear-gradient"/>
    <linearGradient id="linear-gradient-4" x1="-358.4118" y1="332.4167" x2="-358.4118" y2="331.4289" gradientTransform="matrix(60, 0, 0, -60, 21535, 19945)" xlink:href="#linear-gradient"/>
    <linearGradient id="linear-gradient-5" x1="-358.4037" y1="332.4167" x2="-358.4037" y2="331.4289" gradientTransform="matrix(60, 0, 0, -60, 21535, 19945)" xlink:href="#linear-gradient"/>
    <linearGradient id="linear-gradient-6" x1="-358.414" y1="332.4167" x2="-358.414" y2="331.4289" gradientTransform="matrix(60, 0, 0, -60, 21535, 19945)" xlink:href="#linear-gradient"/>
    <linearGradient id="linear-gradient-7" x1="-358.4076" y1="332.4167" x2="-358.4076" y2="331.4289" gradientTransform="matrix(60, 0, 0, -60, 21535, 19945)" xlink:href="#linear-gradient"/>
    <linearGradient id="linear-gradient-8" x1="-358.4072" y1="332.4167" x2="-358.4072" y2="331.4289" gradientTransform="matrix(60, 0, 0, -60, 21535, 19945)" xlink:href="#linear-gradient"/>
    <linearGradient id="linear-gradient-9" x1="-358.4097" y1="332.4167" x2="-358.4097" y2="331.4289" gradientTransform="matrix(60, 0, 0, -60, 21535, 19945)" xlink:href="#linear-gradient"/>
    <linearGradient id="linear-gradient-10" x1="-358.4154" y1="332.4167" x2="-358.4154" y2="331.4289" gradientTransform="matrix(60, 0, 0, -60, 21535, 19945)" xlink:href="#linear-gradient"/>
    <linearGradient id="linear-gradient-12" x1="-358.4103" y1="332.4167" x2="-358.4103" y2="331.4289" gradientTransform="matrix(60, 0, 0, -60, 21535, 19945)" xlink:href="#linear-gradient"/>
    <linearGradient id="linear-gradient-13" x1="-358.4024" y1="331.8909" x2="-358.4024" y2="331.5328" xlink:href="#linear-gradient"/>
    <linearGradient id="linear-gradient-14" x1="-358.4006" y1="332.4167" x2="-358.4006" y2="331.4289" gradientTransform="matrix(60, 0, 0, -60, 21535, 19945)" xlink:href="#linear-gradient"/>
    <linearGradient id="linear-gradient-15" x1="-358.3967" y1="332.4167" x2="-358.3967" y2="331.4289" gradientTransform="matrix(60, 0, 0, -60, 21535, 19945)" xlink:href="#linear-gradient"/>
    <linearGradient id="linear-gradient-18" x1="-358.4047" y1="332.4167" x2="-358.4047" y2="331.4289" gradientTransform="matrix(60, 0, 0, -60, 21535, 19945)" xlink:href="#linear-gradient"/>
    <linearGradient id="linear-gradient-19" x1="-358.4065" y1="332.4167" x2="-358.4065" y2="331.4289" gradientTransform="matrix(60, 0, 0, -60, 21535, 19945)" xlink:href="#linear-gradient"/>
    <linearGradient id="linear-gradient-21" x1="-358.1255" y1="332.4167" x2="-358.1255" y2="331.4289" xlink:href="#linear-gradient"/>
    <linearGradient id="linear-gradient-23" x1="-358.1273" y1="332.4167" x2="-358.1273" y2="331.4289" xlink:href="#linear-gradient"/>
    <linearGradient id="linear-gradient-24" x1="-358.3948" y1="332.4167" x2="-358.3948" y2="331.4289" gradientTransform="matrix(60, 0, 0, -60, 21535, 19945)" xlink:href="#linear-gradient"/>
    <linearGradient id="linear-gradient-25" x1="-358.1272" y1="332.4167" x2="-358.1272" y2="331.4289" xlink:href="#linear-gradient"/>
    <linearGradient id="linear-gradient-26" x1="-358.1283" y1="332.4167" x2="-358.1283" y2="331.4289" xlink:href="#linear-gradient"/>
    <linearGradient id="linear-gradient-27" x1="-358.2429" y1="332.4167" x2="-358.2429" y2="331.4289" xlink:href="#linear-gradient"/>
    <linearGradient id="linear-gradient-30" x1="-358.3976" y1="332.4167" x2="-358.3976" y2="331.4289" gradientTransform="matrix(60, 0, 0, -60, 21535, 19945)" xlink:href="#linear-gradient"/>
    <linearGradient id="linear-gradient-32" x1="-358.3859" y1="332.4167" x2="-358.3859" y2="331.4289" gradientTransform="matrix(60, 0, 0, -60, 21535, 19945)" xlink:href="#linear-gradient"/>
    <linearGradient id="linear-gradient-33" x1="-358.3916" y1="332.4167" x2="-358.3916" y2="331.4289" gradientTransform="matrix(60, 0, 0, -60, 21535, 19945)" xlink:href="#linear-gradient"/>
    <linearGradient id="linear-gradient-34" x1="-358.3938" y1="332.4167" x2="-358.3938" y2="331.4289" gradientTransform="matrix(60, 0, 0, -60, 21535, 19945)" xlink:href="#linear-gradient"/>
    <linearGradient id="linear-gradient-35" x1="-358.3874" y1="332.4167" x2="-358.3874" y2="331.4289" gradientTransform="matrix(60, 0, 0, -60, 21535, 19945)" xlink:href="#linear-gradient"/>
    <linearGradient id="linear-gradient-36" x1="-358.2428" y1="332.4167" x2="-358.2428" y2="331.4289" xlink:href="#linear-gradient"/>
    <linearGradient id="linear-gradient-37" x1="-358.2439" y1="332.4167" x2="-358.2439" y2="331.4289" xlink:href="#linear-gradient"/>
    <linearGradient id="linear-gradient-38" x1="-358.2438" y1="332.4167" x2="-358.2438" y2="331.4289" xlink:href="#linear-gradient"/>
    <linearGradient id="linear-gradient-40" x1="-358.8043" y1="332.4167" x2="-358.8043" y2="331.4289" gradientTransform="matrix(60, 0, 0, -60, 21535, 19945)" xlink:href="#linear-gradient"/>
    <linearGradient id="linear-gradient-41" x1="-358.3941" y1="332.4167" x2="-358.3941" y2="331.4289" gradientTransform="matrix(60, 0, 0, -60, 21535, 19945)" xlink:href="#linear-gradient"/>
    <linearGradient id="linear-gradient-42" x1="-358.7919" y1="332.4167" x2="-358.7919" y2="331.4289" gradientTransform="matrix(60, 0, 0, -60, 21535, 19945)" xlink:href="#linear-gradient"/>
    <linearGradient id="linear-gradient-43" x1="-358.8166" y1="332.4167" x2="-358.8166" y2="331.4289" gradientTransform="matrix(60, 0, 0, -60, 21535, 19945)" xlink:href="#linear-gradient"/>
    <linearGradient id="linear-gradient-44" x1="-358.8105" y1="332.4167" x2="-358.8105" y2="331.4289" gradientTransform="matrix(60, 0, 0, -60, 21535, 19945)" xlink:href="#linear-gradient"/>
    <linearGradient id="linear-gradient-45" x1="-358.7981" y1="332.4167" x2="-358.7981" y2="331.4289" gradientTransform="matrix(60, 0, 0, -60, 21535, 19945)" xlink:href="#linear-gradient"/>
    <linearGradient id="linear-gradient-49" x1="-358.8414" y1="332.4167" x2="-358.8414" y2="331.4289" gradientTransform="matrix(60, 0, 0, -60, 21535, 19945)" xlink:href="#linear-gradient"/>
    <linearGradient id="linear-gradient-50" x1="-358.8352" y1="332.4167" x2="-358.8352" y2="331.4289" gradientTransform="matrix(60, 0, 0, -60, 21535, 19945)" xlink:href="#linear-gradient"/>
    <linearGradient id="linear-gradient-53" x1="-358.829" y1="332.4167" x2="-358.829" y2="331.4289" gradientTransform="matrix(60, 0, 0, -60, 21535, 19945)" xlink:href="#linear-gradient"/>
    <linearGradient id="linear-gradient-54" x1="-358.8228" y1="332.4167" x2="-358.8228" y2="331.4289" gradientTransform="matrix(60, 0, 0, -60, 21535, 19945)" xlink:href="#linear-gradient"/>
    <linearGradient id="linear-gradient-58" x1="-358.761" y1="332.4167" x2="-358.761" y2="331.4289" gradientTransform="matrix(60, 0, 0, -60, 21535, 19945)" xlink:href="#linear-gradient"/>
    <linearGradient id="linear-gradient-59" x1="-358.3873" y1="332.4167" x2="-358.3873" y2="331.4289" gradientTransform="matrix(60, 0, 0, -60, 21535, 19945)" xlink:href="#linear-gradient"/>
    <linearGradient id="linear-gradient-61" x1="-358.7672" y1="332.4167" x2="-358.7672" y2="331.4289" gradientTransform="matrix(60, 0, 0, -60, 21535, 19945)" xlink:href="#linear-gradient"/>
    <linearGradient id="linear-gradient-62" x1="-358.3895" y1="332.4167" x2="-358.3895" y2="331.4289" gradientTransform="matrix(60, 0, 0, -60, 21535, 19945)" xlink:href="#linear-gradient"/>
    <linearGradient id="linear-gradient-64" x1="-358.7549" y1="332.4167" x2="-358.7549" y2="331.4289" gradientTransform="matrix(60, 0, 0, -60, 21535, 19945)" xlink:href="#linear-gradient"/>
    <linearGradient id="linear-gradient-65" x1="-358.391" y1="332.4167" x2="-358.391" y2="331.4289" gradientTransform="matrix(60, 0, 0, -60, 21535, 19945)" xlink:href="#linear-gradient"/>
    <linearGradient id="linear-gradient-67" x1="-358.7734" y1="332.4167" x2="-358.7734" y2="331.4289" gradientTransform="matrix(60, 0, 0, -60, 21535, 19945)" xlink:href="#linear-gradient"/>
    <linearGradient id="linear-gradient-68" x1="-358.7858" y1="332.4167" x2="-358.7858" y2="331.4289" gradientTransform="matrix(60, 0, 0, -60, 21535, 19945)" xlink:href="#linear-gradient"/>
    <linearGradient id="linear-gradient-71" x1="-358.7796" y1="332.4167" x2="-358.7796" y2="331.4289" gradientTransform="matrix(60, 0, 0, -60, 21535, 19945)" xlink:href="#linear-gradient"/>
    <linearGradient id="linear-gradient-74" x1="-357.9522" y1="332.4167" x2="-357.9522" y2="331.4289" gradientTransform="matrix(60, 0, 0, -60, 21535, 19945)" xlink:href="#linear-gradient"/>
    <radialGradient id="radial-gradient" cx="57.8691" cy="157.2697" r="75.2681" gradientUnits="userSpaceOnUse">
      <stop offset="0" stop-color="#3a3336"/>
      <stop offset="1"/>
    </radialGradient>
    <radialGradient id="radial-gradient-2" cx="29.7391" cy="316.1106" r="189.6804" xlink:href="#radial-gradient"/>
  </defs>
  <title>PaiBack Logo</title>
  <g id="App-Icon-60-x-60">
    <rect id="App-Icon" class="cls-1" width="60" height="60" rx="13.5" ry="13.5"/>
  </g>
  <path class="cls-2" d="M56.8951,56.02v-.9089q-.3924.4731-.826.9089Z" transform="translate(0.0021)"/>
  <path class="cls-3" d="M31.0414,45.0209h.0031l.003.0008c.0135,0,.0292.0015.045.003l.0106.0007h.0008v.0007l.03.0038h.0008l-.1743-.5515-.1758.5508.0242-.0024h.0029l.0015-.0008h.0023l.0068-.0007.0059-.0007.009-.0009.0315-.0021.009-.0008h.0046l.04-.0015.0368-.0006h.0029a.6483.6483,0,0,1,.0783.0021Z" transform="translate(0.0021)"/>
  <path class="cls-4" d="M30.1543,43.9775c-.0045.0223-.0076.0447-.01.0677.0016-.01.0023-.0208.0045-.03Z" transform="translate(0.0021)"/>
  <path class="cls-5" d="M30.2775,44.6416a.219.219,0,0,1,.027-.026l.0023-.0015.0007-.0007c.0135-.0127.0286-.0247.0443-.0374a.2607.2607,0,0,0,.0234-.0179l.006-.0045h.0007l.0091-.0052.015-.0119-.1727-.1216-.0578-.04-.0031.011.0458.1118Z" transform="translate(0.0021)"/>
  <path class="cls-6" d="M30.6471,45.7352a.1635.1635,0,0,1,.0286-.0121l.0015-.0007c.0112-.0045.0247-.0089.0382-.0134l.0068-.0023a.4268.4268,0,0,1,.0421-.0119.39.39,0,0,1,.0444-.01c.02-.0038.0413-.0067.0623-.009l.0075-.0006h.0045l.0074-.0009.02-.0021-.2456-.39Z" transform="translate(0.0021)"/>
  <path class="cls-7" d="M30.1385,45.308l.0074-.006.02-.0156.0008-.0009.0014-.0014.0023-.0031.0143-.01.0037-.0023a.3988.3988,0,0,1,.0361-.0275l.0067-.0052.0038-.0029.0031-.0015.006-.0044.0165-.0112-.1592-.0962-.0452-.0261.0339.0863Z" transform="translate(0.0021)"/>
  <path class="cls-8" d="M30.6537,45.0523h.0008l.0294-.006-.275-.3809.0128.4628h.0007l.0037-.0015.0233-.01v-.0007a.2584.2584,0,0,1,.0316-.0118c.0173-.0067.0345-.0128.0526-.0187.0157-.0051.03-.01.0466-.0141l.0083-.0022a.2089.2089,0,0,1,.027-.0074c.0089-.0031.0188-.0052.0285-.0075l.0046-.0009Z" transform="translate(0.0021)"/>
  <path class="cls-9" d="M30.4547,44.506l.003-.0015.0181-.01.0059-.0037h.0009l.0173-.009a.4269.4269,0,0,1,.0615-.03.32.32,0,0,1,.0339-.0134l.006-.0031c.0179-.0074.0308-.0126.0435-.0164s.027-.0089.0414-.0127h.0007l.0293-.0082-.3-.3763Z" transform="translate(0.0021)"/>
  <path class="cls-10" d="M30.4008,45.9065l.0006-.0008.0211-.0217.0134-.0127a.728.728,0,0,1,.1082-.0835l.0188-.011a.214.214,0,0,1,.0279-.015l-.3516-.2458Z" transform="translate(0.0021)"/>
  <path class="cls-11" d="M30.2173,46.3752v-.03l.0007-.015v-.015l.0008-.0038a.2478.2478,0,0,1,.0037-.0372l.006-.0335.0068-.0283-.3185.03Z" transform="translate(0.0021)"/>
  <path class="cls-7" d="M30.2548,46.1419l.0115-.0275.0051-.0134a.62.62,0,0,1,.06-.1081l.01-.0142.0188-.0245-.3959-.0962Z" transform="translate(0.0021)"/>
  <path class="cls-12" d="M30.3458,43.8188l.0421.0828.0121-.0135.0134-.0133.0052-.0061.0262-.0237.0016-.0016.0143-.0133.0224-.0187-.1216-.0746-.08-.0482.0645.13Z" transform="translate(0.0021)"/>
  <polygon class="cls-13" points="30.858 42.291 30.857 42.292 30.862 42.289 30.858 42.291"/>
  <path class="cls-14" d="M30.8725,42.2819l.0143-.0067v-.0007h.0007l.0217-.01a.1324.1324,0,0,1,.0782-.0073.0819.0819,0,0,1,.0256.0081l.0007.0007h.0015l.0051.0021.0121.0052h.0007l.0092.0046.0059.0037.0181.01-.106-.4479-.015.0619v.0008l-.0886.3719.0119.0052Z" transform="translate(0.0021)"/>
  <path class="cls-15" d="M31.16,42.9407l.0075.0037.0014.0008.0122.0053.01.0045.0167.0089.006.0038a.1285.1285,0,0,1,.02.0112l.0242-.1753-.1158.13h.0008Z" transform="translate(0.0021)"/>
  <path class="cls-3" d="M30.871,42.908l.0007-.0008a.3378.3378,0,0,1,.0909-.0067l.01-.0008a.4766.4766,0,0,1,.076.0075l.0008.0008.0142.0021.0167.0046-.12-.4272-.12.4272.0167-.0046Z" transform="translate(0.0021)"/>
  <path class="cls-3" d="M30.8229,43.6465h.0007l.0076-.0013.0173-.0031a.4863.4863,0,0,1,.1133-.0082.5245.5245,0,0,1,.1113.0082l.0174.0031.0067.0013h.0007l.0225.0054.009.0021-.169-.54-.1691.539.0069-.0014Z" transform="translate(0.0021)"/>
  <path class="cls-16" d="M30.71,42.9661l.0036-.0023v-.0006l.0031-.0015L30.72,42.96l.0128-.0067.0069-.0029.0113-.0053h.0006l.0068-.0037.0143-.0052.006-.0023-.1165-.13.0248.1745Z" transform="translate(0.0021)"/>
  <path class="cls-17" d="M30.5441,43.7665l.0211-.0139v-.0009l.0128-.0075.0089-.0052.0068-.0045a.2632.2632,0,0,1,.0307-.0162l.0218-.0113.0061-.0037.027-.0113.0151-.0074.0083-.0023.0187-.0074.0188-.0068.0106-.0029-.2787-.2952.0676.4Z" transform="translate(0.0021)"/>
  <path class="cls-3" d="M30.8177,44.377h.0006l.0165-.0031a.9635.9635,0,0,1,.1268-.0073.7536.7536,0,0,1,.121.0073l.02.0031v.0008l.01.0006.021.0031L30.96,43.83l-.1735.5523.02-.0029Z" transform="translate(0.0021)"/>
  <rect class="cls-18" x="46.4513" y="54.8684" width="2.0389" height="0.1571"/>
  <rect class="cls-18" x="46.4513" y="54.5269" width="2.0433" height="0.157"/>
  <rect class="cls-19" x="46.2299" y="54.1853" width="2.2689" height="0.1572"/>
  <path class="cls-20" d="M31.1819,43.669l.018.0067V43.675l.0159.0059.0278.012.0165.0066.02.01L31.3,43.72a.1633.1633,0,0,1,.0264.014l.0106.006.0187.0112.0233.0157.0015.0014.0008.0009.0683-.4-.2786.2952Z" transform="translate(0.0021)"/>
  <rect class="cls-21" x="46.2299" y="53.5021" width="2.2776" height="0.1572"/>
  <rect class="cls-22" x="46.0898" y="53.1605" width="2.4221" height="0.1572"/>
  <rect class="cls-23" x="39.6179" y="52.4774" width="1.6164" height="0.1573"/>
  <rect class="cls-22" x="46.0898" y="52.4774" width="2.4308" height="0.1572"/>
  <rect class="cls-22" x="46.0898" y="52.8189" width="2.4265" height="0.1572"/>
  <path class="cls-24" d="M31.0107,45.6717l.0316.0031.0074.0006c.021.0023.042.0052.0624.009a.3692.3692,0,0,1,.0509.0119l.0391.0112c.0143.0045.0286.01.0421.0149h.0006l.0279.0118-.0165-.4523Z" transform="translate(0.0021)"/>
  <rect class="cls-23" x="39.627" y="52.8189" width="1.6073" height="0.1573"/>
  <path class="cls-25" d="M31.6921,46.24c.003.0172.006.035.0074.0523a.4256.4256,0,0,1,.0046.0521v.03l.3-.1334-.3177-.03A.2083.2083,0,0,1,31.6921,46.24Z" transform="translate(0.0021)"/>
  <path class="cls-26" d="M31.33,45.7612l.027.0156h.0008l.0165.01a.71.71,0,0,1,.1022.0783l.015.0133.0068.006.0217.0225.1616-.3905Z" transform="translate(0.0021)"/>
  <path class="cls-27" d="M31.3479,45.074c.0135.0035.0271.0081.04.0126a.3766.3766,0,0,1,.0414.0142l.027.01.0143.0052v.0007l.024.01.0037.0015.0135-.4628-.2758.3809c.01.0014.02.0038.03.006h.0007c.0143.0031.0277.0067.0413.01l.02.0053.0118.0037Z" transform="translate(0.0021)"/>
  <path class="cls-28" d="M31.56,45.9548l.0032.0046.015.0193.0112.015a.6445.6445,0,0,1,.0578.1051l.0074.0157.0112.0283.2909-.2848Z" transform="translate(0.0021)"/>
  <rect class="cls-29" x="39.6361" y="53.1605" width="1.5983" height="0.1573"/>
  <rect class="cls-30" x="39.645" y="53.5021" width="1.449" height="0.1573"/>
  <rect class="cls-31" x="39.6541" y="53.8438" width="1.44" height="0.1571"/>
  <rect class="cls-19" x="46.2299" y="53.8438" width="2.2732" height="0.1571"/>
  <path class="cls-32" d="M6.7426,54.34a.0991.0991,0,0,0-.0923.1045v1.0474h.185V54.4448A.1.1,0,0,0,6.7426,54.34Z" transform="translate(0.0021)"/>
  <path class="cls-33" d="M31.318,44.4337l.0111.0053a.1639.1639,0,0,1,.0233.0089l.007.0031c.0209.0089.0421.0193.0646.0313l.0143.0082h.0006l.0045.0023.006.0036.0052.0023.0114.0067.0383-.4844-.3.3763.0292.0082h.0007c.0145.0038.0287.0082.0428.0127l.0331.0127-.0023.0291Z" transform="translate(0.0021)"/>
  <path class="cls-34" d="M7.4838,54.34a.0994.0994,0,0,0-.0925.1045v.8473a.1928.1928,0,0,1,.0649.0278.1133.1133,0,0,1,.0487.0878v.0845h.0712V54.4448A.0989.0989,0,0,0,7.4838,54.34Z" transform="translate(0.0021)"/>
  <path class="cls-35" d="M6.0011,51.1526a.0988.0988,0,0,0-.0925.1046v2.83a.0932.0932,0,1,0,.1849,0v-2.83A.0991.0991,0,0,0,6.0011,51.1526Z" transform="translate(0.0021)"/>
  <path class="cls-36" d="M6.3719,51.1526a.0988.0988,0,0,0-.0925.1046v2.83a.0932.0932,0,1,0,.1849,0v-2.83A.0991.0991,0,0,0,6.3719,51.1526Z" transform="translate(0.0021)"/>
  <path class="cls-37" d="M7.1134,51.1526a.0988.0988,0,0,0-.0925.1046v2.83a.0932.0932,0,1,0,.1851,0v-2.83A.0991.0991,0,0,0,7.1134,51.1526Z" transform="translate(0.0021)"/>
  <path class="cls-37" d="M7.1134,54.34a.0991.0991,0,0,0-.0925.1045v1.0474h.1475v-.0845A.1046.1046,0,0,1,7.206,55.33v-.8855A.1.1,0,0,0,7.1134,54.34Z" transform="translate(0.0021)"/>
  <path class="cls-32" d="M6.7426,51.1526a.0988.0988,0,0,0-.0923.1046v2.83a.0932.0932,0,1,0,.185,0v-2.83A.0992.0992,0,0,0,6.7426,51.1526Z" transform="translate(0.0021)"/>
  <path class="cls-35" d="M6.0011,54.34a.0991.0991,0,0,0-.0925.1045v1.0474h.1849V54.4448A.0994.0994,0,0,0,6.0011,54.34Z" transform="translate(0.0021)"/>
  <path class="cls-38" d="M4.518,51.1526a.0988.0988,0,0,0-.0926.1046v2.83a.0932.0932,0,1,0,.1851,0v-2.83A.0991.0991,0,0,0,4.518,51.1526Z" transform="translate(0.0021)"/>
  <path class="cls-39" d="M4.8888,54.34a.0991.0991,0,0,0-.0926.1045v1.0474h.1849V54.4448A.0993.0993,0,0,0,4.8888,54.34Z" transform="translate(0.0021)"/>
  <path class="cls-38" d="M4.518,54.34a.0991.0991,0,0,0-.0926.1045v1.0015h.04v.046H4.61V54.4448A.0994.0994,0,0,0,4.518,54.34Z" transform="translate(0.0021)"/>
  <path class="cls-39" d="M4.8888,51.1526a.0988.0988,0,0,0-.0926.1046v2.83a.0932.0932,0,1,0,.1849,0v-2.83A.099.099,0,0,0,4.8888,51.1526Z" transform="translate(0.0021)"/>
  <path class="cls-40" d="M5.26,51.1526a.0988.0988,0,0,0-.0927.1046v2.83a.0932.0932,0,1,0,.185,0v-2.83A.099.099,0,0,0,5.26,51.1526Z" transform="translate(0.0021)"/>
  <path class="cls-41" d="M5.63,54.34a.0991.0991,0,0,0-.0925.1045v1.0474h.1849V54.4448A.0994.0994,0,0,0,5.63,54.34Z" transform="translate(0.0021)"/>
  <path class="cls-41" d="M5.63,51.1526a.0987.0987,0,0,0-.0925.1046v2.83a.0932.0932,0,1,0,.1849,0v-2.83A.0991.0991,0,0,0,5.63,51.1526Z" transform="translate(0.0021)"/>
  <path class="cls-40" d="M5.26,54.34a.0991.0991,0,0,0-.0927.1045v.9025a.1822.1822,0,0,1,.1442-.0634.21.21,0,0,1,.0408.0061v-.8453A.0993.0993,0,0,0,5.26,54.34Z" transform="translate(0.0021)"/>
  <path class="cls-36" d="M6.3719,54.34a.0991.0991,0,0,0-.0925.1045v.84l.0036-.0007a.2058.2058,0,0,1,.1192.0359.112.112,0,0,1,.0495.0878v.0845h.0126V54.4448A.0994.0994,0,0,0,6.3719,54.34Z" transform="translate(0.0021)"/>
  <path class="cls-42" d="M9.3376,54.34a.1.1,0,0,0-.0925.1045v1.0015H9.43V54.4448A.0992.0992,0,0,0,9.3376,54.34Z" transform="translate(0.0021)"/>
  <path class="cls-43" d="M31.6785,45.2289l.0076.0045.0015.0007.0082.0067a.2978.2978,0,0,1,.0407.0306l.01.0081.0008.0008.0037.0023.0031.0029h.0008l.0037.0031.0234.0194.05-.1283v-.0006l.0322-.0857-.0444.0261-.1594.0962Z" transform="translate(0.0021)"/>
  <path class="cls-42" d="M9.3376,51.1526a.0991.0991,0,0,0-.0925.1046v2.83a.0932.0932,0,1,0,.1851,0v-2.83A.0989.0989,0,0,0,9.3376,51.1526Z" transform="translate(0.0021)"/>
  <path class="cls-44" d="M8.9669,51.1526a.099.099,0,0,0-.0925.1046v2.83a.0932.0932,0,1,0,.1851,0v-2.83A.0988.0988,0,0,0,8.9669,51.1526Z" transform="translate(0.0021)"/>
  <path class="cls-45" d="M31.535,44.5514l.0037.0023.0023.0015.0037.0023a.2456.2456,0,0,0,.0226.017l.0172.0142.0293.0254.0029.0022.0273.0246.0585-.1431.0458-.1111-.0038-.0118-.0577.04-.173.1223Z" transform="translate(0.0021)"/>
  <path class="cls-44" d="M8.9669,54.34a.0994.0994,0,0,0-.0925.1045v.84a.1062.1062,0,0,1,.04.0774v.0841h.145V54.4448A.0992.0992,0,0,0,8.9669,54.34Z" transform="translate(0.0021)"/>
  <path class="cls-46" d="M9.7085,54.34a.0994.0994,0,0,0-.0925.1045v1.0474H9.801V54.4448A.0991.0991,0,0,0,9.7085,54.34Z" transform="translate(0.0021)"/>
  <path class="cls-47" d="M31.4382,43.8128a.1713.1713,0,0,1,.0209.0179H31.46l.0141.0134h.0009l.04.0307-.0368-.0269.0233.0208.02.0209.0114.012.04-.082v-.0007l.0655-.13-.0814.0482-.1215.0746Z" transform="translate(0.0021)"/>
  <path class="cls-46" d="M9.7085,51.1526a.0991.0991,0,0,0-.0925.1046v2.83a.0932.0932,0,1,0,.1849,0v-2.83A.0988.0988,0,0,0,9.7085,51.1526Z" transform="translate(0.0021)"/>
  <path class="cls-48" d="M8.5961,51.1526a.099.099,0,0,0-.0925.1046v2.83a.0932.0932,0,1,0,.1851,0v-2.83A.0988.0988,0,0,0,8.5961,51.1526Z" transform="translate(0.0021)"/>
  <path class="cls-49" d="M7.8546,54.34a.0994.0994,0,0,0-.0925.1045v1.0474h.1849V54.4448A.0991.0991,0,0,0,7.8546,54.34Z" transform="translate(0.0021)"/>
  <path class="cls-34" d="M7.4838,51.1526a.0991.0991,0,0,0-.0925.1046v2.83a.0931.0931,0,1,0,.1848,0v-2.83A.0986.0986,0,0,0,7.4838,51.1526Z" transform="translate(0.0021)"/>
  <path class="cls-49" d="M7.8546,51.1526a.099.099,0,0,0-.0925.1046v2.83a.0932.0932,0,1,0,.1849,0v-2.83A.0988.0988,0,0,0,7.8546,51.1526Z" transform="translate(0.0021)"/>
  <path class="cls-50" d="M8.2254,51.1526a.099.099,0,0,0-.0925.1046v2.83a.0932.0932,0,1,0,.1849,0v-2.83A.0988.0988,0,0,0,8.2254,51.1526Z" transform="translate(0.0021)"/>
  <path class="cls-48" d="M8.5961,54.34a.0994.0994,0,0,0-.0925.1045v1.0015h.0742v-.0841a.099.099,0,0,1,.0182-.0562.1629.1629,0,0,1,.0927-.06v-.8015A.0991.0991,0,0,0,8.5961,54.34Z" transform="translate(0.0021)"/>
  <path class="cls-50" d="M8.2254,54.34a.0994.0994,0,0,0-.0925.1045v1.0474h.0182v-.046h.1667V54.4448A.0991.0991,0,0,0,8.2254,54.34Z" transform="translate(0.0021)"/>
  <path class="cls-51" d="M58.8914,51.01v-.0406H58.94v-.4037h-.0972v-.3345H58.92v-.0442h.0638v-.0742h-.1414v-.8629H58.92v-.0438h.0638V49.131h-.1414v-.3226H58.92v-.0439h.0638v-.1824h-.1525V48.377s-.2-.0179-.2.2153v-.85h.0778v-.0438h.0635v-.0742h-.1414v-.3061H58.55v-.28H58.417v-.2367h-.0715v-.3951h.0776v-.0439h.0637v-.0741h-.1413v-.4426h.0918a.5807.5807,0,1,0-1.137,0h.092v.4426h-.1415v.0741h.0638v.0439h.0776v.3951h-.0715v.2367H57.188v.28h-.0817v.3061H56.965v.0742h.0636v.0438h.0778v.85c0-.2332-.2-.2153-.2-.2153v.2051h-.152v.1824h.0638v.0439h.0773v.3226h-.1411v.0746h.0638v.0438h.0773v.8629h-.1411v.0742h.0638v.0442h.0773v.3345h-.0969v.4037h.0486V51.01h.0483v4.1021a13.5,13.5,0,0,0,1.9476-3.1568V51.01Z" transform="translate(0.0021)"/>
  <path class="cls-52" d="M58.92,48.8083v-.0439h.0638v-.1824h-.1525V48.377s-.2-.0179-.2.2153v-.85h.0778v-.0438h.0635v-.0742h-.1414v-.3061H58.55v-.28H58.417v-.2367h-.0715v-.3951h.0776v-.0439h.0637v-.0741h-.1413v-.4426h.0918a.5807.5807,0,1,0-1.137,0h.092v.4426h-.1415v.0741h.0638v.0439h.0776v.3951h-.0715v.2367H57.188v.28h-.0817v.3061H56.965v.0742h.0636v.0438h.0778v.85c0-.2332-.2-.2153-.2-.2153v.2051h-.152v.1824h.0638v.0439h.0773v.3226h-.1411v.0746h.0638v.0438h.0773v.8629h-.1411v.0742h.0638v.0442h.0773v.3345h-.0969v.4037h.0486V51.01h.0483v4.1021a13.5,13.5,0,0,0,1.9476-3.1568V51.01h.0486v-.0406H58.94v-.4037h-.0972v-.3345H58.92v-.0442h.0638v-.0742h-.1414v-.8629H58.92v-.0438h.0638V49.131h-.1414v-.3226Z" transform="translate(0.0021)"/>
  <path class="cls-53" d="M55.2627,56.02V52.1865H54.2394V49.5939H51.7848V55.21h-.91V49.2232L49.8,48.8666V47.3795l-.5931.3951V44.1165l-.1617,3.766-.4709.3135-.0461,3.6251H47.3323V49.5939H45.7261v-.9h-.118V46.7177h-.1773v-.205l-1.04-2.1817h-.1329v-.2929h.0614L43.66,43.13l-.6592.9078h.0615v.2929h-.1329l-1.04,2.1817v.205h-.177v1.9767h-.1182v3.1268H39.5964L39.309,40.9853h-.3814V40.391H37.8469l-.0958-5.3729-.0966,5.3729H36.5739v.5943h-.3809l-.2523,9.4969H33.2627v1.5228h-.6646V48.1431a.0285.0285,0,0,0-.0287-.0283h-.15V45.7983a.1481.1481,0,0,0-.1178-.14c-.0693-.0156-.1511-.0491-.1511-.123v-.3458a.1354.1354,0,0,0-.0467-.1022.15.15,0,0,1-.0421-.1222V44.5a.1869.1869,0,0,0-.1036-.1625.12.12,0,0,1-.0758-.1057v-.4084a.2163.2163,0,0,0-.0655-.153.3263.3263,0,0,1-.1135-.1722V43.2a.1866.1866,0,0,0-.111-.1678c-.0714-.0327-.1563-.0909-.1563-.1863v-.3718a.1875.1875,0,0,0-.1053-.1677.223.223,0,0,1-.0239-.015.1117.1117,0,0,1-.05-.0977v-.5554a.2714.2714,0,0,0-.0495-.1519.3522.3522,0,0,1-.0406-.1886v-.4167a.7091.7091,0,0,0-.0331-.2177.3125.3125,0,0,0-.0156-.0417.1393.1393,0,0,0-.0984-.08l-.0083-.0015-.0511-2.584L30.9086,40.54l-.0076.0016-.0074.0014a.1406.1406,0,0,0-.0918.08.3538.3538,0,0,0-.0141.04.663.663,0,0,0-.0347.2183v.4167a.3511.3511,0,0,1-.0391.1878.2748.2748,0,0,0-.0495.1526v.5554a.1125.1125,0,0,1-.05.0977l-.024.015a.1867.1867,0,0,0-.1044.1677v.3718c0,.0954-.0856.1543-.1578.1863a.1833.1833,0,0,0-.11.1678v.2981a.3243.3243,0,0,1-.1141.173.2137.2137,0,0,0-.0648.1522v.4084a.1208.1208,0,0,1-.0751.1057A.187.187,0,0,0,29.86,44.5v.4651a.1526.1526,0,0,1-.0421.1222.1315.1315,0,0,0-.0474.1022v.3458c0,.0739-.0825.1074-.1517.123a.1453.1453,0,0,0-.1164.14v2.3165h-.1511a.0282.0282,0,0,0-.0277.0283v7.2017H28.999V48.9783H26.99v4.8061h-.37V47.8878a.0571.0571,0,0,0-.0571-.058h-.2281V45.6907a.1252.1252,0,0,0-.126-.1251h-.3016V44.5207a.0866.0866,0,0,0-.087-.0863h-.0555v-.3275a.097.097,0,0,0-.0976-.0967h-.045V43.827a.1.1,0,0,0-.1-.1H25.48v-.1787a.1048.1048,0,0,0-.105-.1042h-.18v-.2114a.072.072,0,0,0-.0735-.0713h-.0689v-.329a.0971.0971,0,0,0-.0978-.0967h-.1875v-1.76a.08.08,0,0,0-.0809-.0789h-.0615v-.2827h.1005a.0418.0418,0,0,0,.0419-.0417v-.06a.0414.0414,0,0,0-.0419-.04h-.1005V40.332h.1021a.04.04,0,0,0,.04-.04v-.0626a.04.04,0,0,0-.04-.0387h-.1741v-2.163h.07a.058.058,0,0,0,.0585-.0565V37.9a.0579.0579,0,0,0-.0585-.0565h-.1l-.0016-.0849v-1.694a.0419.0419,0,1,0-.0825,0v1.7789h-.1005a.0566.0566,0,0,0-.0569.0565v.0715a.0566.0566,0,0,0,.0569.0565h.072v2.163h-.174a.04.04,0,0,0-.0405.0387v.0626a.04.04,0,0,0,.0405.04h.102v.1415h-.1006a.0414.0414,0,0,0-.0419.04v.06a.0418.0418,0,0,0,.0419.0417H24.34v.2827h-.0662a.0779.0779,0,0,0-.0779.076V42.736h-.1651a.12.12,0,0,0-.12.1191v.3067h-.0616a.08.08,0,0,0-.0811.0788v.2039h-.1815a.1023.1023,0,0,0-.1035.1027v.18h-.0375a.1038.1038,0,0,0-.105.1041V44.01h-.0466a.0963.0963,0,0,0-.0959.0953v.3289H23.126a.07.07,0,0,0-.07.07v1.0613h-.3a.1281.1281,0,0,0-.1275.1281V47.83h-.2565a.03.03,0,0,0-.0285.03v5.9249h-.2936v-3.645H19.7471v4.8664H19.252v-7.94l-.2192-1.73-.7822-.8362-.17-.1827v.1827h-.3106v-.2307l-.9645-.9735-.1249,1.076-.0151.1282-.0672.5745v5.4084h-.4745v4.5235H15.74V52.6526h-.3629V50.69h-.4235V49.55h-.8073V48.803h-.42v-.6866l-.0686-.24-.1457-2.8721-.1457,2.8721-.0685.24v.6866H12.82V49.55h-.7745v1.14h-.2982V53.916H10.22v1.37l-.0152-.0023c-.0931,0-.168.0552-.168.1237v.0845H10.02V50.7206H9.6526v-.3885H7.6252v-.1927H5.26v.1927H4.5744v.3885H4.2063v4.7257H3.9745v-.0841a.111.111,0,0,0-.0495-.0878.2025.2025,0,0,0-.1192-.0364c-.0931,0-.1686.0558-.1686.1243v.0841H3.4091A13.4526,13.4526,0,0,0,13.5,60h33a13.4565,13.4565,0,0,0,9.5692-3.98ZM4.61,55.4922H4.4658v-.046h-.04V54.4448a.0932.0932,0,1,1,.1851,0Zm0-1.4051a.0932.0932,0,1,1-.1851,0v-2.83a.0932.0932,0,1,1,.1851,0Zm.3707,1.4051H4.7962V54.4448a.0932.0932,0,1,1,.1849,0Zm0-1.4051a.0932.0932,0,1,1-.1849,0v-2.83a.0932.0932,0,1,1,.1849,0ZM5.352,55.29a.21.21,0,0,0-.0408-.0061.1822.1822,0,0,0-.1442.0634v-.9025a.0932.0932,0,1,1,.185,0Zm0-1.2029a.0932.0932,0,1,1-.185,0v-2.83a.0932.0932,0,1,1,.185,0Zm.3708,1.4051H5.5378V54.4448a.0932.0932,0,1,1,.1849,0Zm0-1.4051a.0932.0932,0,1,1-.1849,0v-2.83a.0932.0932,0,1,1,.1849,0Zm.3708,1.4051H5.9086V54.4448a.0932.0932,0,1,1,.1849,0Zm0-1.4051a.0932.0932,0,1,1-.1849,0v-2.83a.0932.0932,0,1,1,.1849,0Zm.3708,1.4051H6.4517v-.0845a.112.112,0,0,0-.0495-.0878.2058.2058,0,0,0-.1192-.0359l-.0036.0007v-.84a.0932.0932,0,1,1,.1849,0Zm0-1.4051a.0932.0932,0,1,1-.1849,0v-2.83a.0932.0932,0,1,1,.1849,0Zm.3708,1.4051H6.65V54.4448a.0932.0932,0,1,1,.185,0Zm0-1.4051a.0932.0932,0,1,1-.185,0v-2.83a.0932.0932,0,1,1,.185,0ZM7.206,55.33a.1046.1046,0,0,0-.0376.0774v.0845H7.0209V54.4448a.0932.0932,0,1,1,.1851,0Zm0-1.2432a.0932.0932,0,1,1-.1851,0v-2.83a.0932.0932,0,1,1,.1851,0Zm.37,1.4051H7.5049v-.0845a.1133.1133,0,0,0-.0487-.0878.1928.1928,0,0,0-.0649-.0278v-.8473a.0931.0931,0,1,1,.1848,0Zm0-1.4051a.0931.0931,0,1,1-.1848,0v-2.83a.0931.0931,0,1,1,.1848,0Zm.371,1.4051H7.7621V54.4448a.0932.0932,0,1,1,.1849,0Zm0-1.4051a.0932.0932,0,1,1-.1849,0v-2.83a.0932.0932,0,1,1,.1849,0Zm.3708,1.3591H8.1512v.046H8.1329V54.4448a.0932.0932,0,1,1,.1849,0Zm0-1.3591a.0932.0932,0,1,1-.1849,0v-2.83a.0932.0932,0,1,1,.1849,0Zm.3708,1.1592a.1629.1629,0,0,0-.0927.06.099.099,0,0,0-.0182.0562v.0841H8.5036V54.4448a.0932.0932,0,1,1,.1851,0Zm0-1.1592a.0932.0932,0,1,1-.1851,0v-2.83a.0932.0932,0,1,1,.1851,0Zm.3708,1.3591h-.145v-.0841a.1062.1062,0,0,0-.04-.0774v-.84a.0932.0932,0,1,1,.1851,0Zm0-1.3591a.0932.0932,0,1,1-.1851,0v-2.83a.0932.0932,0,1,1,.1851,0ZM9.43,55.4463H9.2452V54.4448a.0932.0932,0,1,1,.1851,0Zm0-1.3591a.0932.0932,0,1,1-.1851,0v-2.83a.0932.0932,0,1,1,.1851,0Zm.3707,1.4051H9.616V54.4448a.0932.0932,0,1,1,.1849,0Zm0-1.4051a.0932.0932,0,1,1-.1849,0v-2.83a.0932.0932,0,1,1,.1849,0ZM31.82,45.1194l.0444-.0261-.0322.0857V45.18l-.05.1283-.0234-.0194-.0037-.0031h-.0008l-.0031-.0029-.0037-.0023-.0008-.0008-.01-.0081a.2978.2978,0,0,0-.0407-.0306l-.0082-.0067-.0015-.0007-.0076-.0045-.0181-.0133Zm-.1329-.7045.0577-.04.0038.0118-.0458.1111-.0585.1431-.0273-.0246-.0029-.0022-.0293-.0254-.0172-.0142a.2456.2456,0,0,1-.0226-.017l-.0037-.0023-.0023-.0015-.0037-.0023-.0211-.0141Zm-.1287-.6783.0814-.0482-.0655.13V43.82l-.04.082-.0114-.012-.02-.0209-.0233-.0208.0368.0269-.04-.0307h-.0009l-.0141-.0134h-.0009a.1713.1713,0,0,0-.0209-.0179l-.0015-.0015Zm-.2809.6813c-.0142-.0045-.0284-.0089-.0428-.0127h-.0007l-.0292-.0082.3-.3763-.0383.4844-.0114-.0067-.0052-.0023-.006-.0036-.0045-.0023h-.0006l-.0143-.0082c-.0225-.012-.0436-.0223-.0646-.0312l-.007-.0031a.1639.1639,0,0,0-.0233-.0089l-.0111-.0053-.01.0261.0023-.0291Zm.1721-1.048-.0683.4-.0008-.0009-.0015-.0014-.0233-.0157-.0187-.0112-.0106-.006A.1633.1633,0,0,0,31.3,43.72L31.28,43.71l-.02-.01-.0165-.0066-.0278-.012L31.2,43.675v.0007l-.018-.0067-.0111-.0038Zm-.1915-.5665-.0242.1753a.1285.1285,0,0,0-.02-.0112l-.006-.0038-.0167-.0089-.01-.0045-.0122-.0053-.0014-.0008-.0075-.0037-.0173-.0067h-.0008Zm-.3125-.8965v-.0008l.015-.0619.106.4479-.0181-.01-.0059-.0037-.0092-.0046h-.0007l-.0121-.0052-.0051-.0021h-.0015l-.0007-.0007a.0819.0819,0,0,0-.0256-.0081.1324.1324,0,0,0-.0782.0073l-.0217.01h-.0007v.0007l-.0143.0067-.0038.0023-.0119-.0052Zm-.09.3837.0038-.0018-.0052.0027Zm.1045.1968.12.4272-.0167-.0046-.0142-.0021-.0008-.0008a.4766.4766,0,0,0-.076-.0075l-.01.0008a.3378.3378,0,0,0-.0909.0067l-.0007.0008-.0142.0021-.0167.0046Zm0,.6268.169.54-.009-.0021-.0225-.0054h-.0007l-.0067-.0013-.0174-.0031a.5245.5245,0,0,0-.1113-.0082.4863.4863,0,0,0-.1133.0082l-.0173.0031-.0076.0013h-.0007l-.0247.0054-.0069.0014Zm0,.7156.1735.5515-.021-.0031-.01-.0006V44.377l-.02-.0031a.7536.7536,0,0,0-.121-.0073.9635.9635,0,0,0-.1268.0073l-.0165.0031h-.0006l-.0114.0023-.02.0029Zm-.1818-.8959-.006.0023-.0143.0052-.0068.0037h-.0006l-.0113.0053-.0069.0029L30.72,42.96l-.0037.0015-.0031.0015v.0006l-.0036.0023-.0226.0119-.0248-.1745Zm-.0277.7312-.0106.0029-.0188.0068-.0187.0074-.0083.0023-.0151.0074-.027.0113-.0061.0037-.0218.0113a.2632.2632,0,0,0-.0307.0162l-.0068.0045-.0089.0052-.0128.0075v.0009l-.0211.0139L30.54,43.77l-.0676-.4Zm-.0347.7319-.0293.0082h-.0007c-.0144.0038-.0278.0082-.0414.0127s-.0256.009-.0435.0164l-.006.0031a.32.32,0,0,0-.0339.0134.4269.4269,0,0,0-.0615.03l-.0173.009h-.0009l-.0059.0037-.0181.01-.003.0015-.0382-.4852Zm-.3546-.66.1216.0746-.0224.0187-.0143.0133-.0016.0016-.0262.0237-.0052.0061-.0134.0133-.0121.0135-.0421-.0828V43.818l-.0645-.13Zm-.1862.6382.0578.04.1727.1216-.015.0119-.0091.0052h-.0007l-.006.0045a.2607.2607,0,0,1-.0234.0179c-.0157.0127-.0307.0247-.0443.0374l-.0007.0007-.0023.0015a.219.219,0,0,0-.027.026l-.0594-.1439-.0458-.1118Zm-.0211-.3973-.0054.0373c-.0022.01-.0029.02-.0045.03C30.1467,44.0222,30.15,44,30.1543,43.9775Zm-.0533,1.1419.1592.0962-.0165.0112-.006.0044-.0031.0015-.0038.0029-.0067.0052a.3988.3988,0,0,0-.0361.0275l-.0037.0023-.0143.01-.0023.0031-.0014.0014-.0008.0009-.02.0156-.0074.006L30.09,45.18l-.0339-.0863Zm.1276,1.1209-.006.0335a.2478.2478,0,0,0-.0037.0372l-.0008.0038v.015l-.0007.015v.03l-.3-.1334.3185-.03Zm.1127-.2617-.01.0142a.62.62,0,0,0-.06.1081l-.0051.0134-.0115.0275-.2906-.2839.3959.0962Zm.2216-.2019-.0188.011a.728.728,0,0,0-.1082.0835l-.0134.0127-.0211.0217-.0006.0008-.1616-.3905.3516.2458A.214.214,0,0,0,30.5629,45.7768Zm.0526-.7147a.2089.2089,0,0,0-.027.0074l-.0083.0022c-.0165.0045-.0308.009-.0466.0141-.018.0059-.0353.012-.0526.0187a.2584.2584,0,0,0-.0316.0118v.0007l-.0233.01-.0037.0015h-.0007l-.0128-.4628.275.3809-.0294.006h-.0008l-.0051.0013-.0046.0009C30.6343,45.0568,30.6245,45.059,30.6155,45.0621Zm.2748.6118-.0074.0009h-.0045l-.0075.0006c-.021.0023-.0421.0052-.0623.009a.39.39,0,0,0-.0444.01.4268.4268,0,0,0-.0421.0119l-.0068.0023c-.0135.0045-.027.0089-.0382.0134l-.0015.0007a.1635.1635,0,0,0-.0286.0121l.0173-.4533.2456.39Zm.0684-.655-.0368.0006-.04.0015h-.0046l-.009.0008-.0315.0021-.009.0009-.0059.0007-.0068.0007h-.0023l-.0015.0008h-.0029l-.0242.0024.1758-.5508.1743.5515h-.0008l-.03-.0038v-.0007h-.0008l-.0106-.0007c-.0157-.0015-.0314-.003-.045-.003l-.003-.0008H31.04a.6483.6483,0,0,0-.0783-.0021Zm.2861.7036h-.0006c-.0135-.0052-.0278-.01-.0421-.0149l-.0391-.0112a.3692.3692,0,0,0-.0509-.0119c-.02-.0038-.0414-.0067-.0624-.009l-.0074-.0006-.0316-.0031.2456-.39.0165.4523Zm.0632-.66c-.0135-.0037-.027-.0073-.0413-.01h-.0007c-.01-.0022-.02-.0046-.03-.006l.2758-.3809-.0135.4628-.0037-.0015-.024-.01v-.0007l-.0143-.0052-.027-.01a.3766.3766,0,0,0-.0414-.0142c-.0127-.0045-.0262-.009-.04-.0126l-.0076-.0023-.0118-.0037Zm.19.8214-.0068-.006-.015-.0133a.71.71,0,0,0-.1022-.0783l-.0165-.01H31.357l-.027-.0156.3515-.2452-.1616.3905Zm.1569.23-.0074-.0157a.6445.6445,0,0,0-.0578-.1051l-.0112-.015-.015-.0193-.0032-.0046.3968-.0969-.2909.2848Zm.049.2608v-.03a.4256.4256,0,0,0-.0046-.0521c-.0014-.0173-.0045-.0352-.0074-.0523a.2083.2083,0,0,0-.006-.0283l.3177.03Zm9.3879,7.6257H39.6541l-.0041-.1571h1.442Zm0-.3416H39.6451l-.0042-.1572H41.092Zm.14-.3416H39.636l-.0041-.1572h1.6Zm0-.3416H39.6271l-.0042-.1572h1.6094Zm0-.3415H39.618l-.0042-.1572h1.6185Zm7.2548,2.3909H46.4492v-.1571h2.04Zm.0045-.3416H46.4492v-.157h2.0443Zm.0043-.3414H46.2278v-.1572h2.27Zm.0043-.3416H46.2278v-.1571H48.502Zm.0043-.3416H46.2278v-.1572h2.2787Zm.0045-.3416H46.0878v-.1572h2.4231Zm.0044-.3416H46.0878v-.1572h2.4274Zm.0043-.3415h-2.43v-.1572H48.52Z" transform="translate(0.0021)"/>
  <g id="Group-53">
    <path id="Fill-1" class="cls-54" d="M15.0078,12.32c17.409-15.173,32.166.295,23.63,11.992a7.3393,7.3393,0,0,1-2.037,1.983c4.14-2.143,8.059-12.052,1.775-19.151,10.8,8.656,3.839,17.989,3.489,17.934a8.361,8.361,0,0,0,2.055-2.485c-3.538,8.807-10.735,11.989-18.671,8.836,2.219,1.676,5.667,2.117,8.969,2.513-14.389,2.02-20.468-12.788-14.733-18.431-2.729,2.637-3.451,4.436-4.415,7.932-.661-4.876,4.057-11.331,9.674-13.105,6.169-2.048,11.118.946,12.382,4.336-1.783-6.347-10.287-7.678-19.556-2.069,1.42-1.903,6.13-4.221,8.551-4.27-1.219-.347-6.2.792-11.113,3.985" transform="translate(0.0021)"/>
    <path id="Stroke-3" class="cls-55" d="M15.0078,12.32c17.409-15.173,32.166.295,23.63,11.992a7.3393,7.3393,0,0,1-2.037,1.983c4.14-2.143,8.059-12.052,1.775-19.151,10.8,8.656,3.839,17.989,3.489,17.934a8.361,8.361,0,0,0,2.055-2.485c-3.538,8.807-10.735,11.989-18.671,8.836,2.219,1.676,5.667,2.117,8.969,2.513-14.389,2.02-20.468-12.788-14.733-18.431-2.729,2.637-3.451,4.436-4.415,7.932-.661-4.876,4.057-11.331,9.674-13.105,6.169-2.048,11.118.946,12.382,4.336-1.783-6.347-10.287-7.678-19.556-2.069,1.42-1.903,6.13-4.221,8.551-4.27C24.9018,7.9878,19.9208,9.1268,15.0078,12.32Z" transform="translate(0.0021)"/>
    <path id="Fill-5" class="cls-56" d="M24.7891,19.0146a4.9635,4.9635,0,1,1,4.963,4.963,4.9626,4.9626,0,0,1-4.963-4.963" transform="translate(0.0021)"/>
    <path id="Fill-7" class="cls-57" d="M24.9277,19.0146a4.824,4.824,0,1,1,4.824,4.824,4.8236,4.8236,0,0,1-4.824-4.824" transform="translate(0.0021)"/>
    <path id="Fill-9" class="cls-58" d="M25.0674,19.0146a4.685,4.685,0,1,1,4.685,4.685,4.6856,4.6856,0,0,1-4.685-4.685" transform="translate(0.0021)"/>
    <path id="Fill-11" class="cls-59" d="M25.207,19.0146a4.5455,4.5455,0,1,1,4.545,4.545,4.5439,4.5439,0,0,1-4.545-4.545" transform="translate(0.0021)"/>
    <path id="Fill-13" class="cls-60" d="M25.3457,19.0146a4.4065,4.4065,0,1,1,4.406,4.406,4.4046,4.4046,0,0,1-4.406-4.406" transform="translate(0.0021)"/>
    <path id="Fill-15" class="cls-61" d="M25.4854,19.0146a4.267,4.267,0,1,1,4.267,4.267,4.2665,4.2665,0,0,1-4.267-4.267" transform="translate(0.0021)"/>
    <path id="Fill-17" class="cls-62" d="M25.625,19.0146a4.1275,4.1275,0,1,1,4.127,4.127,4.1267,4.1267,0,0,1-4.127-4.127" transform="translate(0.0021)"/>
    <path id="Fill-19" class="cls-63" d="M25.7637,19.0146a3.989,3.989,0,1,1,3.988,3.989,3.9882,3.9882,0,0,1-3.988-3.989" transform="translate(0.0021)"/>
    <path id="Fill-21" class="cls-64" d="M25.9023,19.0146a3.85,3.85,0,1,1,3.85,3.85,3.851,3.851,0,0,1-3.85-3.85" transform="translate(0.0021)"/>
    <path id="Fill-23" class="cls-65" d="M26.042,19.0146a3.71,3.71,0,1,1,3.71,3.711,3.7106,3.7106,0,0,1-3.71-3.711" transform="translate(0.0021)"/>
    <path id="Fill-25" class="cls-66" d="M26.1816,19.0146a3.571,3.571,0,1,1,3.57,3.571,3.5711,3.5711,0,0,1-3.57-3.571" transform="translate(0.0021)"/>
    <path id="Fill-27" class="cls-67" d="M26.3213,19.0146a3.4315,3.4315,0,1,1,3.431,3.432,3.4311,3.4311,0,0,1-3.431-3.432" transform="translate(0.0021)"/>
    <path id="Fill-29" class="cls-68" d="M26.459,19.0146a3.2925,3.2925,0,1,1,3.293,3.293,3.2939,3.2939,0,0,1-3.293-3.293" transform="translate(0.0021)"/>
    <path id="Fill-31" class="cls-69" d="M26.5986,19.0146a3.1535,3.1535,0,1,1,3.153,3.153,3.1535,3.1535,0,0,1-3.153-3.153" transform="translate(0.0021)"/>
    <path id="Fill-33" class="cls-70" d="M26.7383,19.0146a3.0135,3.0135,0,1,1,3.014,3.014,3.0141,3.0141,0,0,1-3.014-3.014" transform="translate(0.0021)"/>
    <path id="Fill-35" class="cls-71" d="M26.8779,19.0146a2.874,2.874,0,1,1,2.874,2.874,2.8746,2.8746,0,0,1-2.874-2.874" transform="translate(0.0021)"/>
    <path id="Fill-37" class="cls-72" d="M27.0176,19.0146a2.735,2.735,0,1,1,2.734,2.735,2.7341,2.7341,0,0,1-2.734-2.735" transform="translate(0.0021)"/>
    <path id="Fill-39" class="cls-73" d="M27.1563,19.0146a2.5955,2.5955,0,1,1,2.596,2.596,2.5969,2.5969,0,0,1-2.596-2.596" transform="translate(0.0021)"/>
    <path id="Fill-41" class="cls-74" d="M27.2959,19.0146a2.456,2.456,0,1,1,2.456,2.456,2.4567,2.4567,0,0,1-2.456-2.456" transform="translate(0.0021)"/>
    <path id="Fill-43" class="cls-75" d="M27.4355,19.0146a2.317,2.317,0,1,1,2.316,2.316,2.3157,2.3157,0,0,1-2.316-2.316" transform="translate(0.0021)"/>
    <path id="Fill-45" class="cls-76" d="M27.5742,19.0146a2.1775,2.1775,0,1,1,2.178,2.177,2.1778,2.1778,0,0,1-2.178-2.177" transform="translate(0.0021)"/>
    <path id="Fill-47" class="cls-77" d="M24.9131,25.7715a6.3166,6.3166,0,0,0,1.369,1.074,6.21,6.21,0,0,0,1.875.711,7.4579,7.4579,0,0,0,1.553.152c.216,0,.426-.009.631-.025a7.5807,7.5807,0,0,0,1.81-.347,6.32,6.32,0,0,0,1.845-.948,6.1954,6.1954,0,0,0,.708-.613,6.601,6.601,0,0,0,.844-1.049,7.0793,7.0793,0,0,0,.964-2.302,4.056,4.056,0,0,0-.019-2.211,1.6925,1.6925,0,0,0-.081-.186c-.087-.155-.115.042-.37.683-.075.187-.159.373-.252.553a6.9312,6.9312,0,0,1-2.274,2.558,6.6686,6.6686,0,0,1-3.707,1.151,6.9732,6.9732,0,0,1-2.305-.342,5.8706,5.8706,0,0,1-2.663-1.847,9.6845,9.6845,0,0,1-1.562-2.762s-.032-.433-.272.295a3.712,3.712,0,0,0-.012,1.675,7.5488,7.5488,0,0,0,.991,2.577,7.0574,7.0574,0,0,0,.927,1.203" transform="translate(0.0021)"/>
    <path id="Fill-49" class="cls-75" d="M27.376,19.0146a2.376,2.376,0,1,1,2.376,2.376,2.375,2.375,0,0,1-2.376-2.376" transform="translate(0.0021)"/>
    <path id="Fill-51" class="cls-54" d="M28.0527,17.7046l3.108.006s-.211,4.602-.257,4.768-.164.271-.212-.018c-.292-1.776.244-4.368-.444-4.352h-.3c-.26,0-.268,1.654-.356,1.921-.048.145-.129.12-.176.037-.137-.243-.033-1.958-.351-1.958h-.271c-.14,0-.458,1.099-.772,1.271-.196.108-.323.083-.166-.11a2.1439,2.1439,0,0,0,.349-1.161h-.34c-.117,0,.188-.404.188-.404" transform="translate(0.0021)"/>
  </g>
</svg>
